<?xml version="1.0" encoding="iso-8859-1"?>
<!-- Generator: Adobe Illustrator 19.0.0, SVG Export Plug-In . SVG Version: 6.00 Build 0)  -->
<svg version="1.1" id="Layer_1" xmlns="http://www.w3.org/2000/svg" xmlns:xlink="http://www.w3.org/1999/xlink" x="0px" y="0px"
	 viewBox="0 0 512 512" style="enable-background:new 0 0 512 512;" xml:space="preserve">
<path style="fill:#5A8BB0;" d="M336,96c-43.106,0-82.584,15.504-113.184,41.23c25.93-58.966,83.267-101.002,150.837-104.918
	C344.944,11.963,309.869,0,272,0C174.794,0,96,78.798,96,176c0,43.106,15.504,82.584,41.23,113.184
	C78.262,263.253,36.229,205.917,32.31,138.346C11.963,167.056,0,202.13,0,240c0,97.206,78.798,176,176,176
	c43.106,0,82.584-15.504,113.184-41.23c-25.93,58.968-83.266,101.002-150.838,104.918C167.056,500.037,202.13,512,240,512
	c97.206,0,176-78.798,176-176c0-43.106-15.504-82.584-41.23-113.184c58.968,25.931,101.002,83.267,104.918,150.838
	C500.037,344.944,512,309.87,512,272C512,174.794,433.202,96,336,96z M235.149,301.917c-12.592-19.914-21.31-42.518-25.066-66.768
	c19.914-12.592,42.518-21.31,66.768-25.066c12.592,19.914,21.31,42.518,25.066,66.768
	C282.003,289.443,259.398,298.163,235.149,301.917z"/>
<g>
	<path style="fill:#3C5D76;" d="M256,87.227c29.877-31.653,71.362-52.234,117.653-54.915C344.944,11.963,309.869,0,272,0
		c-5.395,0-10.73,0.256-16,0.731V87.227z"/>
	<path style="fill:#3C5D76;" d="M336,96c-28.811,0-55.997,6.934-80,19.211v99.434c6.794-1.925,13.75-3.461,20.851-4.56
		c12.592,19.914,21.31,42.518,25.066,66.768c-14.082,8.906-29.514,15.861-45.917,20.506v99.432
		c11.909-6.09,23.037-13.488,33.184-22.019c-8.166,18.568-19.451,35.454-33.184,50.003v86.496c89.706-8.086,160-83.462,160-175.269
		c0-43.106-15.504-82.584-41.23-113.184c58.968,25.931,101.002,83.267,104.918,150.838C500.037,344.944,512,309.87,512,272
		C512,174.794,433.202,96,336,96z"/>
</g>
<circle style="fill:#1E2E3B;" cx="256" cy="256" r="56"/>
<g>
</g>
<g>
</g>
<g>
</g>
<g>
</g>
<g>
</g>
<g>
</g>
<g>
</g>
<g>
</g>
<g>
</g>
<g>
</g>
<g>
</g>
<g>
</g>
<g>
</g>
<g>
</g>
<g>
</g>
</svg>
