<?xml version="1.0" encoding="iso-8859-1"?>
<!-- Generator: Adobe Illustrator 16.0.0, SVG Export Plug-In . SVG Version: 6.00 Build 0)  -->
<!DOCTYPE svg PUBLIC "-//W3C//DTD SVG 1.1//EN" "http://www.w3.org/Graphics/SVG/1.1/DTD/svg11.dtd">
<svg version="1.1" id="Capa_1" xmlns="http://www.w3.org/2000/svg" xmlns:xlink="http://www.w3.org/1999/xlink" x="0px" y="0px"
	 width="47.82px" height="47.82px" viewBox="0 0 47.82 47.82" style="enable-background:new 0 0 47.82 47.82;" xml:space="preserve"
	>
<g>
	<g>
		<path d="M15.78,34.176c0.075,0.695,0,1.418,0,1.418h15.296c0,0,0-0.705,0-1.627c3.754-0.588,10.979-6.721,10.979-6.721H4.834
			C4.834,27.246,10.746,33.328,15.78,34.176z"/>
		<path d="M28.848,12.227c-2.356,0-8.937,0-10.704,0c-1.771,0-4.315,3.172-4.315,3.172h19.231
			C33.061,15.398,31.205,12.227,28.848,12.227z"/>
		<path d="M37.083,16.9H10.496L0,25.539h47.82L37.083,16.9z M14.208,23.203c-1.63,0-2.952-0.812-2.952-1.812
			c0-1.003,1.322-1.816,2.952-1.816c1.631,0,2.952,0.813,2.952,1.816C17.16,22.388,15.839,23.203,14.208,23.203z M23.911,23.203
			c-1.631,0-2.952-0.812-2.952-1.812c0-1.003,1.321-1.816,2.952-1.816c1.631,0,2.95,0.813,2.95,1.816
			C26.861,22.388,25.542,23.203,23.911,23.203z M33.753,23.035c-1.631,0-2.952-0.812-2.952-1.815c0-1.001,1.321-1.814,2.952-1.814
			c1.63,0,2.952,0.813,2.952,1.814S35.383,23.035,33.753,23.035z"/>
	</g>
</g>
<g>
</g>
<g>
</g>
<g>
</g>
<g>
</g>
<g>
</g>
<g>
</g>
<g>
</g>
<g>
</g>
<g>
</g>
<g>
</g>
<g>
</g>
<g>
</g>
<g>
</g>
<g>
</g>
<g>
</g>
</svg>
